Coordinates
version=1
nRows=4
nColumns=63
inDegrees=yes

Units are S.I. units (second, meters, Newtons, ...)
If the header above contains a line with 'inDegrees', this indicates whether rotational values are in degrees (yes) or radians (no).

endheader
time	pelvis_tilt	pelvis_list	pelvis_rotation	pelvis_tx	pelvis_ty	pelvis_tz	hip_flexion_r	hip_adduction_r	hip_rotation_r	knee_angle_r	knee_angle_r_beta	ankle_angle_r	subtalar_angle_r	mtp_angle_r	hip_flexion_l	hip_adduction_l	hip_rotation_l	knee_angle_l	knee_angle_l_beta	ankle_angle_l	subtalar_angle_l	mtp_angle_l	L5_S1_Flex_Ext	L5_S1_Lat_Bending	L5_S1_axial_rotation	L4_L5_Flex_Ext	L4_L5_Lat_Bending	L4_L5_axial_rotation	L3_L4_Flex_Ext	L3_L4_Lat_Bending	L3_L4_axial_rotation	L2_L3_Flex_Ext	L2_L3_Lat_Bending	L2_L3_axial_rotation	L1_L2_Flex_Ext	L1_L2_Lat_Bending	L1_L2_axial_rotation	L1_T12_Flex_Ext	L1_T12_Lat_Bending	L1_T12_axial_rotation	Abs_r3	Abs_r2	Abs_r1	Abs_t1	Abs_t2	neck_flexion	neck_bending	neck_rotation	arm_flex_r	arm_add_r	arm_rot_r	elbow_flex_r	pro_sup_r	wrist_flex_r	wrist_dev_r	arm_flex_l	arm_add_l	arm_rot_l	elbow_flex_l	pro_sup_l	wrist_flex_l	wrist_dev_l
      2.45762712	      2.04782067	     -7.87885107	    101.64002436	      0.24066361	      0.69355741	      0.74753318	     15.89777026	     -1.97102122	    -31.00478871	     22.51016181	      0.39287644	     20.58074717	     13.18271197	      0.00000000	     22.05648587	     -1.55883118	      0.73723771	     26.23243497	      0.45784236	     19.33247591	      1.40712419	      0.00000000	      0.17900347	      0.43572325	     -2.90493173	      0.33242734	      0.57951193	     -3.08648996	      0.29408479	      1.05941752	     -3.08648996	      0.20458306	      1.05941752	     -2.54181526	      0.16622262	      0.88852686	     -2.36025703	      0.10228258	      0.67493532	     -2.17869880	      1.27860386	      4.92898858	    -16.15635880	      0.00000000	      0.00000000	     18.78931359	      1.30167867	     11.88870146	     17.15414930	     -4.55823846	     68.58654601	     97.67980564	     89.33376985	     23.88915178	     16.02764050	     18.83802530	      1.47980391	     32.08570293	     92.46124169	     73.05281665	    -12.03994264	     13.95533709
      2.47457627	      1.74033026	     -7.85062517	    101.99686930	      0.24084256	      0.69374562	      0.74753710	     15.74167064	     -2.33213497	    -31.27343266	     22.54723071	      0.39352341	     20.59638057	     12.84955553	      0.00000000	     22.02579021	     -1.23493099	      0.73357900	     26.25822263	      0.45829244	     19.29559533	      1.94017635	      0.00000000	      0.17756913	      0.38254725	     -2.91137081	      0.32976362	      0.50878785	     -3.09333149	      0.29172832	      0.93012539	     -3.09333149	      0.20294375	      0.93012539	     -2.54744946	      0.16489069	      0.78009036	     -2.36548879	      0.10146300	      0.59256569	     -2.18352811	      1.26835850	      4.32745103	    -16.19217105	      0.00000000	      0.00000000	     18.58985487	      1.85000490	     11.89303787	     16.80891199	     -3.08699275	     63.81976262	     96.23772287	     89.12569728	     20.96303460	     13.74073660	     17.47584913	      0.81473341	     36.22453749	     92.42023593	     75.83165921	     -8.93449235	      7.13431091
      2.49152542	      1.79669729	     -7.79097776	    101.86592220	      0.24105708	      0.69375986	      0.74744641	     15.62079780	     -2.30116248	    -31.64169471	     22.54033081	      0.39340299	     20.49198211	     13.35428796	      0.00000000	     22.01275797	     -1.44112279	      0.24487328	     26.33832229	      0.45969044	     19.53058703	      2.33499571	      0.00000000	      0.17760297	      0.37641368	     -2.94001179	      0.32982648	      0.50063019	     -3.12376253	      0.29178392	      0.91521222	     -3.12376253	      0.20298243	      0.91521222	     -2.57251032	      0.16492212	      0.76758277	     -2.38875958	      0.10148234	      0.58306479	     -2.20500885	      1.26860026	      4.25806681	    -16.35146360	      0.00000000	      0.00000000	     18.29974733	      1.72949216	     10.74863266	     17.99619959	     -2.22835212	     63.55982407	     95.43858500	     89.11350107	     20.58171709	     13.81284639	     16.86220226	      0.80509632	     38.08216591	     91.14587370	     81.87221606	     -7.24544247	     -0.53767520
      2.50847458	      1.84051129	     -7.77995194	    102.04553069	      0.24099826	      0.69353867	      0.74772283	     15.60949766	     -2.34796692	    -32.02135535	     22.62120179	      0.39481445	     20.48351070	     13.49684833	      0.00000000	     22.15288704	     -1.49519401	      0.11965014	     26.48731096	      0.46229079	     19.69614410	      2.63787010	      0.00000000	      0.17436197	      0.37757898	     -3.02300552	      0.32380761	      0.50218005	     -3.21194337	      0.28645928	      0.91804554	     -3.21194337	      0.19927829	      0.91804554	     -2.64512983	      0.16191252	      0.76995906	     -2.45619199	      0.09963043	      0.58486985	     -2.26725414	      1.24545011	      4.27124897	    -16.81304980	      0.00000000	      0.00000000	     18.26450478	      1.85412711	     10.93529788	     18.64989886	     -1.73905318	     63.52809565	     95.51809000	     89.23473651	     23.42689718	     16.80603154	     17.30984619	      1.50867759	     38.19940976	     89.34212489	     75.46933043	     -6.78605872	     -5.91219496
